<svg   
   xmlns="http://www.w3.org/2000/svg"
   width="32"
   height="32"
   viewBox="0 0 32 32">
  <rect width="32" height="32" fill="#FFFAFE" />
  <g color="#4A0734">
    <path
      d="m 27.272827,5.3300795 h 1.982578 v 3.8044071 q -0.76356,0.5760194 -1.768245,0.8841224 -1.004685,0.308104 -2.022766,0.308104 -1.460142,0 -2.625577,-0.616207 -1.165434,-0.6296026 -1.835224,-1.7280582 -0.656394,-1.1118513 -0.656394,-2.5050145 0,-1.3931632 0.656394,-2.4916187 0.66979,-1.1118514 1.84862,-1.7280582 1.17883,-0.62960257 2.652368,-0.62960257 1.232414,0 2.237099,0.41526977 1.004685,0.4152698 1.687871,1.205622 l -1.393163,1.2859968 q -1.004685,-1.0582682 -2.42464,-1.0582682 -0.897519,0 -1.5941,0.3750824 -0.696582,0.3750824 -1.08506,1.0582681 -0.388478,0.6831858 -0.388478,1.5673086 0,0.870727 0.388478,1.5539128 0.388478,0.6831857 1.071664,1.0716639 0.696581,0.3750824 1.580704,0.3750824 0.937706,0 1.687871,-0.401874 z M 20.994671,0.78890343 16.935744,10.165963 H 14.792416 L 10.746885,0.78890343 H 13.09115 L 15.944455,7.4868032 18.837948,0.78890343 Z M 6.8621107,10.326713 q -1.1118513,0 -2.1567237,-0.294708 Q 3.6739104,9.7239018 3.0443078,9.241653 l 0.736769,-1.6342876 q 0.602811,0.4420614 1.4333506,0.7099774 0.8305396,0.267916 1.6610791,0.267916 0.9243102,0 1.3663716,-0.267916 0.4420614,-0.2813118 0.4420614,-0.736769 0,-0.3348949 -0.267916,-0.5492277 Q 8.1615033,6.8036175 7.7462335,6.6696595 7.3443595,6.5357015 6.6477779,6.3749519 5.576114,6.1204317 4.8929282,5.8659115 4.2097424,5.6113913 3.7140978,5.0487677 3.231849,4.4861441 3.231849,3.5484382 q 0,-0.8171438 0.4420614,-1.473538 0.4420614,-0.66979 1.3261842,-1.0582682 0.8975186,-0.38847817 2.1835153,-0.38847817 0.8975186,0 1.7548498,0.2143328 Q 9.7957909,1.0568194 10.438789,1.4586934 L 9.7689993,3.1063768 q -1.2993926,-0.736769 -2.5987852,-0.736769 -0.9109143,0 -1.3529757,0.2947076 -0.4286656,0.2947076 -0.4286656,0.7769564 0,0.4822487 0.4956446,0.7233731 0.5090404,0.2277286 1.5405169,0.4554572 1.071664,0.2545202 1.7548498,0.5090404 0.6831858,0.2545202 1.1654349,0.803748 0.495644,0.5492278 0.495644,1.4869337 0,0.803748 -0.455457,1.473538 Q 9.9431447,9.5497564 9.0456261,9.9382346 8.1481075,10.326713 6.8621107,10.326713 Z"
      fill="currentColor"
    />
    <path
      d="m 27.496092,26.540097 h 1.982578 v 3.804407 q -0.763561,0.576019 -1.768246,0.884123 -1.004685,0.308103 -2.022765,0.308103 -1.460142,0 -2.625577,-0.616207 -1.165435,-0.629602 -1.835225,-1.728058 -0.656394,-1.111851 -0.656394,-2.505014 0,-1.393164 0.656394,-2.491619 0.66979,-1.111852 1.848621,-1.728058 1.17883,-0.629603 2.652368,-0.629603 1.232414,0 2.237099,0.41527 1.004685,0.41527 1.68787,1.205622 l -1.393163,1.285997 q -1.004685,-1.058269 -2.42464,-1.058269 -0.897518,0 -1.5941,0.375083 -0.696581,0.375082 -1.085059,1.058268 -0.388479,0.683186 -0.388479,1.567309 0,0.870726 0.388479,1.553912 0.388478,0.683186 1.071664,1.071664 0.696581,0.375083 1.580704,0.375083 0.937706,0 1.687871,-0.401874 z M 20.01678,21.998921 v 9.377059 h -1.781642 l -4.675134,-5.693214 v 5.693214 h -2.143328 v -9.377059 h 1.795037 l 4.661739,5.693214 v -5.693214 z m -13.248439,0 q 1.2458093,0 2.1567237,0.415269 0.9243102,0.41527 1.4199543,1.178831 0.495645,0.76356 0.495645,1.808433 0,1.031476 -0.495645,1.808433 -0.4956441,0.76356 -1.4199543,1.17883 -0.9109144,0.401874 -2.1567237,0.401874 H 4.8795332 V 31.37598 H 2.7094137 v -9.377059 z m -0.1205622,5.023424 q 0.9778933,0 1.4869337,-0.415269 0.5090404,-0.428666 0.5090404,-1.205622 0,-0.790352 -0.5090404,-1.205622 Q 7.6256721,23.767166 6.6477788,23.767166 H 4.8795332 v 3.255179 z"
      fill="currentColor"
    />
    <path
      d="M15.95,21.5l-4.033144,-6.983063h3.024858v-3.099798h2.016573v3.099798h3.024858z"
      fill="currentColor"
    />
  </g>
</svg>
